<svg width="24" height="24" viewBox="0 0 24 24" fill="none" xmlns="http://www.w3.org/2000/svg">
<path fill-rule="evenodd" clip-rule="evenodd" d="M8 2C7.44772 2 7 2.44772 7 3V4H5C3.89543 4 3 4.89543 3 6V18C3 19.1046 3.89543 20 5 20H19C20.1046 20 21 19.1046 21 18V6C21 4.89543 20.1046 4 19 4H17V3C17 2.44772 16.5523 2 16 2C15.4477 2 15 2.44772 15 3V4H9V3C9 2.44772 8.55228 2 8 2ZM5 8H19V18H5V8Z" fill="white"/>
<rect x="7" y="11" width="3" height="3" rx="0.5" fill="white"/>
<rect x="11" y="11" width="3" height="3" rx="0.5" fill="white"/>
<rect x="15" y="11" width="3" height="3" rx="0.5" fill="white"/>
</svg>
