<svg width="24" height="24" viewBox="0 0 24 24" fill="none" xmlns="http://www.w3.org/2000/svg">
<path d="M9 11V20H4.59961C4.03956 20 3.75981 20 3.5459 19.891C3.35774 19.7951 3.20487 19.6423 3.10899 19.4541C3 19.2402 3 18.96 3 18.3999V12.6001C3 12.04 3 11.7598 3.10899 11.5459C3.20487 11.3577 3.35774 11.2049 3.5459 11.109C3.75981 11 4.03956 11 4.59961 11H9ZM15 20V8H19.4C19.9601 8 20.2409 8 20.4548 8.10899C20.6429 8.20487 20.7948 8.35774 20.8906 8.5459C20.9996 8.75981 21 9.04005 21 9.6001V18.3999C21 18.96 20.9996 19.2402 20.8906 19.4541C20.7948 19.6423 20.6429 19.7951 20.4548 19.891C20.2409 20 19.9601 20 19.4 20H15ZM9 4H13.3996C13.9597 4 14.2403 4 14.4542 4.10899C14.6423 4.20487 14.7948 4.35774 14.8906 4.5459C14.9996 4.75981 15 5.04005 15 5.6001V20H9V4Z" fill="white"/>
</svg>
